<svg width="80" height="80" viewBox="0 0 80 80" fill="none" xmlns="http://www.w3.org/2000/svg">
<g clip-path="url(#clip0_7_20)">
<path d="M41.6875 0.0389938C41.8062 0.0519867 42.2125 0.0974808 42.5937 0.136475C46.9687 0.571892 51.5312 2.43054 55.0937 5.22502C56.55 6.3623 58.4312 8.24696 59.5125 9.65069C63.9437 15.3956 65.8625 22.6093 64.8687 29.7969C64.0187 35.9448 61.0937 41.6052 56.6875 45.6409C55.8062 46.4468 54.5625 47.4281 53.7 48.013L53.1187 48.4029L53.45 48.4809C54.3375 48.6954 56.4 49.2933 57.375 49.6247C67.7937 53.121 75.475 59.5743 78.5312 67.3859C79.4687 69.7839 80 72.5069 80 74.931C80 75.6133 79.7937 79.0772 79.7125 79.7206L79.6812 80H40H0.318741L0.287491 79.7206C0.206245 79.0837 -7.62939e-06 75.6198 -7.62939e-06 74.9634C-7.62939e-06 72.9098 0.374992 70.6223 1.04374 68.5946C3.76875 60.3022 11.4562 53.4785 22.2812 49.7482C23.4812 49.3323 25.7875 48.6434 26.4375 48.5134C26.5562 48.4874 26.6937 48.4484 26.7375 48.4224C26.7812 48.3964 26.4812 48.143 25.925 47.7465C23.575 46.0959 21.6062 44.1462 19.925 41.8197C19.3187 40.9813 18.7687 40.117 18.4187 39.4736C18.2687 39.1942 18.0062 38.7132 17.8437 38.4078C17.4187 37.6409 16.8312 36.2762 16.4125 35.1129C14.9 30.8562 14.4937 26.1836 15.25 21.6084C15.7125 18.8075 16.7625 15.7595 18.1312 13.2315C18.6562 12.2697 19.6875 10.6905 20.4125 9.74817C21.275 8.62389 23.1687 6.65475 24.25 5.75792C25.125 5.03006 26.6625 3.94476 27.5312 3.43136C29.8875 2.04712 32.4625 1.0398 35.0937 0.487411C36.6562 0.155968 37.6562 0.0584869 39.625 0.0324936C40.6375 0.0194931 41.5687 0.0259933 41.6875 0.0389938Z" fill="#193822"/>
</g>
<defs>
<clipPath id="clip0_7_20">
<rect width="80" height="80" fill="white" transform="matrix(-1 0 0 1 80 0)"/>
</clipPath>
</defs>
</svg>
