<svg width="80" height="80" viewBox="0 0 80 80" fill="none" xmlns="http://www.w3.org/2000/svg">
<g clip-path="url(#clip0_7_24)">
<path d="M73.2656 39.9219C73.2656 35.5781 76.0156 31.8281 79.7812 30.375C78.7656 26.1875 77.0312 22.125 74.8594 18.5156C73.5625 19.0938 72.1094 19.3906 70.6719 19.3906C68.0625 19.3906 65.4688 18.375 63.4375 16.3594C60.4062 13.3281 59.6719 8.6875 61.2656 4.9375C57.6562 2.75 53.75 1.01562 49.4062 0C48.1094 3.90625 44.3438 6.65625 40 6.65625C35.6562 6.65625 31.9062 3.90625 30.4531 0.140625C26.25 1.15625 22.2031 2.89063 18.5938 5.0625C20.3281 8.82812 19.6094 13.3125 16.4219 16.4844C14.3906 18.5156 11.7969 19.5156 9.1875 19.5156C7.73438 19.5156 6.29688 19.2188 5 18.6406C2.82812 22.25 1.09375 26.3125 0.078125 30.5C3.84375 31.9531 6.59375 35.7031 6.59375 40.0469C6.59375 44.3906 3.84375 48.1406 0.078125 49.5938C1.09375 53.7812 2.82812 57.8437 5 61.4531C6.29688 60.875 7.75 60.5781 9.1875 60.5781C11.7969 60.5781 14.3906 61.5938 16.4219 63.6094C19.4531 66.6406 20.1875 71.2812 18.5938 75.0312C22.2031 77.2031 26.2656 78.9375 30.4531 79.9531C31.9062 76.1875 35.6562 73.4375 40 73.4375C44.3438 73.4375 48.0938 76.1875 49.5469 79.9531C53.7344 78.9375 57.7969 77.2031 61.4062 75.0312C59.8125 71.2656 60.3906 66.7812 63.5781 63.6094C65.6094 61.5781 68.2031 60.5781 70.8125 60.5781C72.2656 60.5781 73.7031 60.875 75 61.4531C77.1719 57.8437 78.9062 53.7812 79.9219 49.5938C75.875 48.0312 73.2656 44.2656 73.2656 39.9219ZM40.1406 56.4219C31.0312 56.4219 23.5 49.0469 23.5 39.7812C23.5 30.5156 30.875 23.1406 40.1406 23.1406C49.4062 23.1406 56.7812 30.8125 56.7812 39.9219C56.7812 49.0312 49.4062 56.4219 40.1406 56.4219Z" fill="#193822"/>
</g>
<defs>
<clipPath id="clip0_7_24">
<rect width="80" height="80" fill="white"/>
</clipPath>
</defs>
</svg>
